# xmcd
#
# Track frame offsets: 
#        150
#        57918
#        93361
#        109114
#        145271
#        161153
#        193727
#        201107
#        232787
#        243533
#        263189
#        279862
#        315855
#
# Disc length: 4313 seconds
#
# Revision: 8
# Processed by: cddbd v1.5.2PL0 Copyright (c) Steve Scherf et al.
# Submitted via: ExactAudioCopy v1.0b3
#
DISCID=ae10d70d
DTITLE=The Zurich String Trio - Beethoven Edition cd 35 - String Trios
DTITLE=I
DYEAR=2002
DGENRE=Chamber Music
TTITLE0=String trio in E-flat, Op.3 - I. Allegro con brio
TTITLE1=String trio in E-flat, Op.3 - II. Andante
TTITLE2=String trio in E-flat, Op.3 - III. Menuetto - Allegro
TTITLE3=String trio in E-flat, Op.3 - IV. Adagio
TTITLE4=String trio in E-flat, Op.3 - V. Menuetto - Moderato
TTITLE5=String trio in E-flat, Op.3 - VI. Finale - Allegro
TTITLE6=Serenade in D, Op.8 for string trio - I. Marcia - Allegro
TTITLE7=Serenade in D, Op.8 for string trio - II. Adagio 
TTITLE8=Serenade in D, Op.8 for string trio - III. Menuetto - Allegrett
TTITLE8=o 
TTITLE9=Serenade in D, Op.8 for string trio - IV. Adagio - Scherzo - Al
TTITLE9=legro 
TTITLE10=Serenade in D, Op.8 for string trio - V. Allegretto alla Pola
TTITLE10=cca
TTITLE11=Serenade in D, Op.8 for string trio - VI. Andante quasi alleg
TTITLE11=retto - Variations 1-4 – Allegro 
TTITLE12=Serenade in D, Op.8 for string trio - VII. Marcia - Allegro
EXTD=YEAR: 2002
EXTT0=
EXTT1=
EXTT2=
EXTT3=
EXTT4=
EXTT5=
EXTT6=
EXTT7=
EXTT8=
EXTT9=
EXTT10=
EXTT11=
EXTT12=
PLAYORDER=
